<svg xmlns="http://www.w3.org/2000/svg" xmlns:xlink="http://www.w3.org/1999/xlink" width="500" zoomAndPan="magnify" viewBox="0 0 375 374.999991" height="500" preserveAspectRatio="xMidYMid meet" version="1.0"><defs><g/><clipPath id="6a4f92f9b5"><path d="M 41.039062 143.332031 L 47.125 143.332031 L 47.125 149.417969 L 41.039062 149.417969 Z M 41.039062 143.332031 " clip-rule="nonzero"/></clipPath><clipPath id="9914f4e935"><path d="M 41.789062 143.332031 L 46.375 143.332031 C 46.574219 143.332031 46.765625 143.410156 46.90625 143.550781 C 47.046875 143.691406 47.125 143.882812 47.125 144.082031 L 47.125 148.667969 C 47.125 148.867188 47.046875 149.058594 46.90625 149.199219 C 46.765625 149.339844 46.574219 149.417969 46.375 149.417969 L 41.789062 149.417969 C 41.589844 149.417969 41.398438 149.339844 41.257812 149.199219 C 41.117188 149.058594 41.039062 148.867188 41.039062 148.667969 L 41.039062 144.082031 C 41.039062 143.882812 41.117188 143.691406 41.257812 143.550781 C 41.398438 143.410156 41.589844 143.332031 41.789062 143.332031 Z M 41.789062 143.332031 " clip-rule="nonzero"/></clipPath><clipPath id="caf0398f51"><path d="M 298.636719 187.773438 L 305.882812 187.773438 L 305.882812 195.019531 L 298.636719 195.019531 Z M 298.636719 187.773438 " clip-rule="nonzero"/></clipPath><clipPath id="0cceedfd55"><path d="M 298.636719 187.773438 L 305.878906 187.773438 L 305.878906 195.015625 L 298.636719 195.015625 Z M 298.636719 187.773438 " clip-rule="nonzero"/></clipPath></defs><g fill="#000000" fill-opacity="1"><g transform="translate(82.105484, 178.653845)"><g><path d="M 10.15625 -24.78125 L 10.15625 0 L 7.65625 0 L 7.65625 -24.78125 L 0.796875 -24.78125 L 0.796875 -27.03125 L 17.046875 -27.03125 L 17.046875 -24.78125 Z M 10.15625 -24.78125 "/></g></g></g><g fill="#000000" fill-opacity="1"><g transform="translate(99.943924, 178.653845)"><g><path d="M 5.0625 -10.984375 L 5.0625 0 L 2.5625 0 L 2.5625 -27.03125 L 10.046875 -27.03125 C 11.015625 -27.03125 11.984375 -26.921875 12.953125 -26.703125 C 13.929688 -26.484375 14.820312 -26.085938 15.625 -25.515625 C 16.4375 -24.953125 17.085938 -24.171875 17.578125 -23.171875 C 18.078125 -22.179688 18.328125 -20.90625 18.328125 -19.34375 L 18.328125 -18.640625 C 18.328125 -17.210938 18.113281 -16.019531 17.6875 -15.0625 C 17.257812 -14.101562 16.691406 -13.335938 15.984375 -12.765625 C 15.285156 -12.203125 14.507812 -11.78125 13.65625 -11.5 L 18.328125 0 L 15.59375 0 L 11.296875 -11.015625 C 11.085938 -10.992188 10.878906 -10.984375 10.671875 -10.984375 C 10.460938 -10.984375 10.253906 -10.984375 10.046875 -10.984375 Z M 5.0625 -13.234375 L 10.125 -13.234375 C 10.695312 -13.234375 11.3125 -13.300781 11.96875 -13.4375 C 12.632812 -13.582031 13.253906 -13.847656 13.828125 -14.234375 C 14.398438 -14.628906 14.863281 -15.191406 15.21875 -15.921875 C 15.582031 -16.648438 15.765625 -17.59375 15.765625 -18.75 L 15.765625 -19.265625 C 15.765625 -20.421875 15.582031 -21.363281 15.21875 -22.09375 C 14.863281 -22.820312 14.398438 -23.378906 13.828125 -23.765625 C 13.253906 -24.160156 12.632812 -24.425781 11.96875 -24.5625 C 11.3125 -24.707031 10.695312 -24.78125 10.125 -24.78125 L 5.0625 -24.78125 Z M 5.0625 -13.234375 "/></g></g></g><g fill="#000000" fill-opacity="1"><g transform="translate(119.825833, 178.653845)"><g><path d="M 8.796875 -27.3125 L 12.375 -27.3125 L 20.171875 0 L 17.46875 0 L 15.53125 -6.9375 L 5.65625 -6.9375 L 3.703125 0 L 1 0 Z M 10.5625 -24.578125 L 6.265625 -9.1875 L 14.875 -9.1875 Z M 10.5625 -24.578125 "/></g></g></g><g fill="#000000" fill-opacity="1"><g transform="translate(140.573667, 178.653845)"><g><path d="M 4.546875 -12.828125 C 4.546875 -8.984375 5.078125 -6.195312 6.140625 -4.46875 C 7.203125 -2.738281 8.863281 -1.875 11.125 -1.875 L 11.375 -1.875 C 13.40625 -1.875 14.867188 -2.46875 15.765625 -3.65625 C 16.671875 -4.84375 17.125 -6.554688 17.125 -8.796875 L 19.6875 -8.796875 L 19.6875 -8.453125 C 19.6875 -5.609375 18.984375 -3.425781 17.578125 -1.90625 C 16.179688 -0.382812 14.039062 0.375 11.15625 0.375 C 8.0625 0.375 5.753906 -0.65625 4.234375 -2.71875 C 2.722656 -4.789062 1.96875 -8.160156 1.96875 -12.828125 L 1.96875 -14.203125 C 1.96875 -18.898438 2.722656 -22.273438 4.234375 -24.328125 C 5.753906 -26.378906 8.0625 -27.40625 11.15625 -27.40625 C 14.039062 -27.40625 16.179688 -26.625 17.578125 -25.0625 C 18.984375 -23.507812 19.6875 -21.207031 19.6875 -18.15625 L 19.6875 -17.1875 L 17.125 -17.1875 C 17.125 -19.988281 16.671875 -22.015625 15.765625 -23.265625 C 14.867188 -24.523438 13.40625 -25.15625 11.375 -25.15625 L 11.125 -25.15625 C 8.882812 -25.15625 7.226562 -24.296875 6.15625 -22.578125 C 5.082031 -20.859375 4.546875 -18.066406 4.546875 -14.203125 Z M 4.546875 -12.828125 "/></g></g></g><g fill="#000000" fill-opacity="1"><g transform="translate(161.979794, 178.653845)"><g><path d="M 2.5625 -27.03125 L 17.640625 -27.03125 L 17.640625 -24.78125 L 5.0625 -24.78125 L 5.0625 -14.90625 L 15.90625 -14.90625 L 15.90625 -12.6875 L 5.0625 -12.6875 L 5.0625 -2.25 L 17.640625 -2.25 L 17.640625 0 L 2.5625 0 Z M 2.5625 -27.03125 "/></g></g></g><g fill="#000000" fill-opacity="1"><g transform="translate(180.995907, 178.653845)"><g><path d="M 21.140625 0.28125 L 15.484375 -24.328125 L 9.875 0.28125 L 6.453125 0.28125 L 1.421875 -27.03125 L 4.0625 -27.03125 L 8.28125 -2.8125 L 13.828125 -27.03125 L 17.1875 -27.03125 L 22.734375 -2.8125 L 26.96875 -27.03125 L 29.59375 -27.03125 L 24.578125 0.28125 Z M 21.140625 0.28125 "/></g></g></g><g fill="#000000" fill-opacity="1"><g transform="translate(211.99669, 178.653845)"><g><path d="M 11.234375 0.375 C 8.160156 0.375 5.847656 -0.65625 4.296875 -2.71875 C 2.742188 -4.789062 1.96875 -8.160156 1.96875 -12.828125 L 1.96875 -14.203125 C 1.96875 -18.898438 2.742188 -22.273438 4.296875 -24.328125 C 5.847656 -26.378906 8.160156 -27.40625 11.234375 -27.40625 C 14.328125 -27.40625 16.644531 -26.378906 18.1875 -24.328125 C 19.738281 -22.273438 20.515625 -18.898438 20.515625 -14.203125 L 20.515625 -12.828125 C 20.515625 -8.160156 19.738281 -4.789062 18.1875 -2.71875 C 16.644531 -0.65625 14.328125 0.375 11.234375 0.375 Z M 11.125 -1.875 L 11.375 -1.875 C 13.632812 -1.875 15.296875 -2.738281 16.359375 -4.46875 C 17.421875 -6.195312 17.953125 -8.984375 17.953125 -12.828125 L 17.953125 -14.203125 C 17.953125 -18.066406 17.421875 -20.859375 16.359375 -22.578125 C 15.296875 -24.296875 13.632812 -25.15625 11.375 -25.15625 L 11.125 -25.15625 C 8.863281 -25.15625 7.203125 -24.296875 6.140625 -22.578125 C 5.078125 -20.859375 4.546875 -18.066406 4.546875 -14.203125 L 4.546875 -12.828125 C 4.546875 -8.984375 5.078125 -6.195312 6.140625 -4.46875 C 7.203125 -2.738281 8.863281 -1.875 11.125 -1.875 Z M 11.125 -1.875 "/></g></g></g><g fill="#000000" fill-opacity="1"><g transform="translate(234.476594, 178.653845)"><g><path d="M 5.0625 -10.984375 L 5.0625 0 L 2.5625 0 L 2.5625 -27.03125 L 10.046875 -27.03125 C 11.015625 -27.03125 11.984375 -26.921875 12.953125 -26.703125 C 13.929688 -26.484375 14.820312 -26.085938 15.625 -25.515625 C 16.4375 -24.953125 17.085938 -24.171875 17.578125 -23.171875 C 18.078125 -22.179688 18.328125 -20.90625 18.328125 -19.34375 L 18.328125 -18.640625 C 18.328125 -17.210938 18.113281 -16.019531 17.6875 -15.0625 C 17.257812 -14.101562 16.691406 -13.335938 15.984375 -12.765625 C 15.285156 -12.203125 14.507812 -11.78125 13.65625 -11.5 L 18.328125 0 L 15.59375 0 L 11.296875 -11.015625 C 11.085938 -10.992188 10.878906 -10.984375 10.671875 -10.984375 C 10.460938 -10.984375 10.253906 -10.984375 10.046875 -10.984375 Z M 5.0625 -13.234375 L 10.125 -13.234375 C 10.695312 -13.234375 11.3125 -13.300781 11.96875 -13.4375 C 12.632812 -13.582031 13.253906 -13.847656 13.828125 -14.234375 C 14.398438 -14.628906 14.863281 -15.191406 15.21875 -15.921875 C 15.582031 -16.648438 15.765625 -17.59375 15.765625 -18.75 L 15.765625 -19.265625 C 15.765625 -20.421875 15.582031 -21.363281 15.21875 -22.09375 C 14.863281 -22.820312 14.398438 -23.378906 13.828125 -23.765625 C 13.253906 -24.160156 12.632812 -24.425781 11.96875 -24.5625 C 11.3125 -24.707031 10.695312 -24.78125 10.125 -24.78125 L 5.0625 -24.78125 Z M 5.0625 -13.234375 "/></g></g></g><g fill="#000000" fill-opacity="1"><g transform="translate(254.70503, 178.653845)"><g><path d="M 5.0625 -27.03125 L 5.0625 -12.203125 L 15.25 -27.03125 L 18.296875 -27.03125 L 10.265625 -15.671875 L 18.296875 0 L 15.453125 0 L 8.671875 -13.40625 L 5.0625 -8.3125 L 5.0625 0 L 2.5625 0 L 2.5625 -27.03125 Z M 5.0625 -27.03125 "/></g></g></g><g fill="#000000" fill-opacity="1"><g transform="translate(273.582355, 178.653845)"><g><path d="M 9.984375 -12.828125 C 7.046875 -13.210938 4.960938 -14.03125 3.734375 -15.28125 C 2.515625 -16.53125 1.90625 -18.046875 1.90625 -19.828125 L 1.90625 -20.171875 C 1.90625 -22.429688 2.675781 -24.203125 4.21875 -25.484375 C 5.769531 -26.765625 7.828125 -27.40625 10.390625 -27.40625 C 13.421875 -27.40625 15.597656 -26.65625 16.921875 -25.15625 C 18.253906 -23.65625 18.921875 -21.507812 18.921875 -18.71875 L 18.921875 -17.875 L 16.421875 -17.875 C 16.421875 -20.445312 15.945312 -22.300781 15 -23.4375 C 14.050781 -24.582031 12.550781 -25.15625 10.5 -25.15625 L 10.265625 -25.15625 C 8.617188 -25.15625 7.238281 -24.738281 6.125 -23.90625 C 5.019531 -23.082031 4.46875 -21.941406 4.46875 -20.484375 L 4.46875 -20.203125 C 4.46875 -19.253906 4.65625 -18.425781 5.03125 -17.71875 C 5.414062 -17.019531 6.078125 -16.4375 7.015625 -15.96875 C 7.953125 -15.507812 9.253906 -15.164062 10.921875 -14.9375 C 13.878906 -14.539062 16.003906 -13.734375 17.296875 -12.515625 C 18.585938 -11.304688 19.234375 -9.664062 19.234375 -7.59375 L 19.234375 -7.25 C 19.234375 -4.863281 18.4375 -2.992188 16.84375 -1.640625 C 15.25 -0.296875 13.097656 0.375 10.390625 0.375 C 7.523438 0.375 5.34375 -0.394531 3.84375 -1.9375 C 2.34375 -3.488281 1.59375 -5.660156 1.59375 -8.453125 L 1.59375 -8.796875 L 4.09375 -8.796875 C 4.09375 -6.421875 4.671875 -4.671875 5.828125 -3.546875 C 6.984375 -2.429688 8.472656 -1.875 10.296875 -1.875 L 10.53125 -1.875 C 12.382812 -1.875 13.867188 -2.328125 14.984375 -3.234375 C 16.109375 -4.148438 16.671875 -5.425781 16.671875 -7.0625 L 16.671875 -7.375 C 16.671875 -8.96875 16.144531 -10.191406 15.09375 -11.046875 C 14.039062 -11.910156 12.335938 -12.503906 9.984375 -12.828125 Z M 9.984375 -12.828125 "/></g></g></g><path stroke-linecap="butt" transform="matrix(0.75, 0.000000000000005195, -0.000000000000005195, 0.75, 237.189642, 191.753951)" fill="none" stroke-linejoin="miter" d="M 0.0023527 0.49994 L 24.622146 0.49994 " stroke="#000000" stroke-width="1" stroke-opacity="1" stroke-miterlimit="4"/><path stroke-linecap="butt" transform="matrix(0.75, 0, 0, 0.75, 212.943888, 191.753951)" fill="none" stroke-linejoin="miter" d="M 0.00189918 0.49994 L 24.621692 0.49994 " stroke="#000000" stroke-width="1" stroke-opacity="1" stroke-miterlimit="4"/><path stroke-linecap="butt" transform="matrix(0.75, 0, 0, 0.75, 188.267877, 191.753951)" fill="none" stroke-linejoin="miter" d="M 0.00220575 0.49994 L 24.621999 0.49994 " stroke="#000000" stroke-width="1" stroke-opacity="1" stroke-miterlimit="4"/><path stroke-linecap="butt" transform="matrix(0.75, 0, 0, 0.75, 164.022138, 191.753951)" fill="none" stroke-linejoin="miter" d="M 0.00173303 0.49994 L 24.621526 0.49994 " stroke="#000000" stroke-width="1" stroke-opacity="1" stroke-miterlimit="4"/><path stroke-linecap="butt" transform="matrix(0.75, 0.000000000000005195, -0.000000000000005195, 0.75, 139.070928, 191.753951)" fill="none" stroke-linejoin="miter" d="M -0.00082089 0.49994 L 24.618972 0.49994 " stroke="#000000" stroke-width="1" stroke-opacity="1" stroke-miterlimit="4"/><path stroke-linecap="butt" transform="matrix(0.75, 0.000000000000005195, -0.000000000000005195, 0.75, 114.825187, 191.753951)" fill="none" stroke-linejoin="miter" d="M -0.00129041 0.49994 L 24.618503 0.49994 " stroke="#000000" stroke-width="1" stroke-opacity="1" stroke-miterlimit="4"/><path stroke-linecap="butt" transform="matrix(0.75, 0.000000000000005195, -0.000000000000005195, 0.75, 89.873987, 191.753951)" fill="none" stroke-linejoin="miter" d="M 0.0013512 0.49994 L 24.621144 0.49994 " stroke="#000000" stroke-width="1" stroke-opacity="1" stroke-miterlimit="4"/><path stroke-linecap="butt" transform="matrix(0.75, 0, 0, 0.75, 65.133941, 142.955499)" fill="none" stroke-linejoin="miter" d="M -0.0015047 0.502044 L 7.238079 0.502044 C 8.571413 0.502044 9.852663 1.028085 10.795371 1.976002 C 11.743288 2.91871 12.269329 4.19996 12.269329 5.533294 L 12.269329 10.564544 " stroke="#000000" stroke-width="1" stroke-opacity="1" stroke-miterlimit="4"/><path stroke-linecap="butt" transform="matrix(0, 0.75, -0.75, 0, 74.70851, 157.949229)" fill="none" stroke-linejoin="miter" d="M -0.0000134373 0.501972 L 24.61978 0.501972 " stroke="#000000" stroke-width="1" stroke-opacity="1" stroke-miterlimit="4"/><path stroke-linecap="butt" transform="matrix(-0.75, 0, 0, -0.75, 57.114555, 143.705499)" fill="none" stroke-linejoin="miter" d="M 0.00169853 0.497956 L 33.199617 0.497956 " stroke="#000000" stroke-width="1" stroke-opacity="1" stroke-miterlimit="4"/><g clip-path="url(#6a4f92f9b5)"><g clip-path="url(#9914f4e935)"><path fill="#000000" d="M 41.039062 143.332031 L 47.125 143.332031 L 47.125 149.417969 L 41.039062 149.417969 Z M 41.039062 143.332031 " fill-opacity="1" fill-rule="nonzero"/></g></g><path stroke-linecap="butt" transform="matrix(0.75, 0, 0, 0.75, 74.571386, 182.572078)" fill="none" stroke-linejoin="miter" d="M 0.498569 -0.00235348 L 0.498569 7.403897 C 0.498569 9.903897 2.529819 11.929939 5.029819 11.929939 L 9.555861 11.929939 " stroke="#000000" stroke-width="1" stroke-opacity="1" stroke-miterlimit="4"/><path stroke-linecap="butt" transform="matrix(0.75, 0, 0, 0.75, 261.741873, 191.021471)" fill="none" stroke-linejoin="miter" d="M 0.00041945 0.497413 L 50.922298 0.497413 " stroke="#000000" stroke-width="1" stroke-opacity="1" stroke-miterlimit="4"/><path stroke-linecap="butt" transform="matrix(0.75, 0, 0, 0.75, 304.583716, 191.021471)" fill="none" stroke-linejoin="miter" d="M -0.00224593 0.497413 L 50.924841 0.497413 " stroke="#000000" stroke-width="1" stroke-opacity="1" stroke-miterlimit="4"/><path stroke-linecap="butt" transform="matrix(0, -0.75, 0.75, 0, 301.883509, 189.071296)" fill="none" stroke-linejoin="miter" d="M 0.00131185 0.499071 L 50.92319 0.499071 " stroke="#000000" stroke-width="1" stroke-opacity="1" stroke-miterlimit="4"/><g clip-path="url(#caf0398f51)"><path fill="#ffffff" d="M 298.636719 187.773438 L 305.878906 187.773438 L 305.878906 195.019531 L 298.636719 195.019531 Z M 298.636719 187.773438 " fill-opacity="1" fill-rule="nonzero"/></g><g clip-path="url(#0cceedfd55)"><path stroke-linecap="butt" transform="matrix(0.75, 0, 0, 0.75, 298.637066, 187.774617)" fill="none" stroke-linejoin="miter" d="M -0.000462586 -0.00157303 L 9.655788 -0.00157303 L 9.655788 9.654678 L -0.000462586 9.654678 Z M -0.000462586 -0.00157303 " stroke="#000000" stroke-width="2" stroke-opacity="1" stroke-miterlimit="4"/></g><path stroke-linecap="butt" transform="matrix(0, -0.75, 0.75, 0, 301.883509, 232.226236)" fill="none" stroke-linejoin="miter" d="M -0.000435399 0.499071 L 50.921443 0.499071 " stroke="#000000" stroke-width="1" stroke-opacity="1" stroke-miterlimit="4"/></svg>