<svg xmlns="http://www.w3.org/2000/svg" xmlns:xlink="http://www.w3.org/1999/xlink" width="500" zoomAndPan="magnify" viewBox="0 0 375 374.999991" height="500" preserveAspectRatio="xMidYMid meet" version="1.2"><defs><clipPath id="8840654649"><path d="M 46.414062 128.097656 L 52.566406 128.097656 L 52.566406 134.253906 L 46.414062 134.253906 Z M 46.414062 128.097656 "/></clipPath><clipPath id="e950504294"><path d="M 47.164062 128.097656 L 51.816406 128.097656 C 52.015625 128.097656 52.207031 128.175781 52.347656 128.316406 C 52.488281 128.457031 52.566406 128.648438 52.566406 128.847656 L 52.566406 133.503906 C 52.566406 133.699219 52.488281 133.890625 52.347656 134.03125 C 52.207031 134.171875 52.015625 134.253906 51.816406 134.253906 L 47.164062 134.253906 C 46.964844 134.253906 46.773438 134.171875 46.632812 134.03125 C 46.492188 133.890625 46.414062 133.699219 46.414062 133.503906 L 46.414062 128.847656 C 46.414062 128.648438 46.492188 128.457031 46.632812 128.316406 C 46.773438 128.175781 46.964844 128.097656 47.164062 128.097656 Z M 47.164062 128.097656 "/></clipPath><clipPath id="fabc591190"><path d="M 306.855469 173.03125 L 314.179688 173.03125 L 314.179688 180.355469 L 306.855469 180.355469 Z M 306.855469 173.03125 "/></clipPath><clipPath id="7bdf38bd30"><path d="M 306.855469 173.03125 L 314.167969 173.03125 L 314.167969 180.34375 L 306.855469 180.34375 Z M 306.855469 173.03125 "/></clipPath></defs><g id="758044593b"><g style="fill:#000000;fill-opacity:1;"><g transform="translate(87.932517, 163.811605)"><path style="stroke:none" d="M 10.265625 -25.046875 L 10.265625 0 L 7.734375 0 L 7.734375 -25.046875 L 0.8125 -25.046875 L 0.8125 -27.328125 L 17.234375 -27.328125 L 17.234375 -25.046875 Z M 10.265625 -25.046875 "/></g></g><g style="fill:#000000;fill-opacity:1;"><g transform="translate(105.96799, 163.811605)"><path style="stroke:none" d="M 5.109375 -11.109375 L 5.109375 0 L 2.59375 0 L 2.59375 -27.328125 L 10.15625 -27.328125 C 11.132812 -27.328125 12.113281 -27.210938 13.09375 -26.984375 C 14.082031 -26.765625 14.984375 -26.367188 15.796875 -25.796875 C 16.617188 -25.222656 17.28125 -24.429688 17.78125 -23.421875 C 18.28125 -22.421875 18.53125 -21.128906 18.53125 -19.546875 L 18.53125 -18.84375 C 18.53125 -17.394531 18.3125 -16.1875 17.875 -15.21875 C 17.445312 -14.25 16.875 -13.476562 16.15625 -12.90625 C 15.445312 -12.332031 14.660156 -11.90625 13.796875 -11.625 L 18.53125 0 L 15.765625 0 L 11.421875 -11.140625 C 11.210938 -11.117188 11 -11.109375 10.78125 -11.109375 C 10.570312 -11.109375 10.363281 -11.109375 10.15625 -11.109375 Z M 5.109375 -13.375 L 10.234375 -13.375 C 10.816406 -13.375 11.441406 -13.441406 12.109375 -13.578125 C 12.773438 -13.722656 13.398438 -13.992188 13.984375 -14.390625 C 14.566406 -14.796875 15.035156 -15.363281 15.390625 -16.09375 C 15.753906 -16.832031 15.9375 -17.785156 15.9375 -18.953125 L 15.9375 -19.484375 C 15.9375 -20.648438 15.753906 -21.597656 15.390625 -22.328125 C 15.035156 -23.066406 14.566406 -23.632812 13.984375 -24.03125 C 13.398438 -24.425781 12.773438 -24.691406 12.109375 -24.828125 C 11.441406 -24.972656 10.816406 -25.046875 10.234375 -25.046875 L 5.109375 -25.046875 Z M 5.109375 -13.375 "/></g></g><g style="fill:#000000;fill-opacity:1;"><g transform="translate(126.069504, 163.811605)"><path style="stroke:none" d="M 8.890625 -27.609375 L 12.5 -27.609375 L 20.390625 0 L 17.65625 0 L 15.6875 -7 L 5.703125 -7 L 3.75 0 L 1.015625 0 Z M 10.6875 -24.84375 L 6.34375 -9.28125 L 15.03125 -9.28125 Z M 10.6875 -24.84375 "/></g></g><g style="fill:#000000;fill-opacity:1;"><g transform="translate(147.046507, 163.811605)"><path style="stroke:none" d="M 4.59375 -12.96875 C 4.59375 -9.082031 5.128906 -6.265625 6.203125 -4.515625 C 7.273438 -2.765625 8.957031 -1.890625 11.25 -1.890625 L 11.484375 -1.890625 C 13.546875 -1.890625 15.03125 -2.488281 15.9375 -3.6875 C 16.851562 -4.894531 17.3125 -6.628906 17.3125 -8.890625 L 19.890625 -8.890625 L 19.890625 -8.546875 C 19.890625 -5.671875 19.179688 -3.460938 17.765625 -1.921875 C 16.359375 -0.378906 14.195312 0.390625 11.28125 0.390625 C 8.144531 0.390625 5.8125 -0.65625 4.28125 -2.75 C 2.757812 -4.84375 2 -8.25 2 -12.96875 L 2 -14.359375 C 2 -19.097656 2.757812 -22.503906 4.28125 -24.578125 C 5.8125 -26.660156 8.144531 -27.703125 11.28125 -27.703125 C 14.195312 -27.703125 16.359375 -26.914062 17.765625 -25.34375 C 19.179688 -23.769531 19.890625 -21.441406 19.890625 -18.359375 L 19.890625 -17.375 L 17.3125 -17.375 C 17.3125 -20.195312 16.851562 -22.242188 15.9375 -23.515625 C 15.03125 -24.796875 13.546875 -25.4375 11.484375 -25.4375 L 11.25 -25.4375 C 8.976562 -25.4375 7.300781 -24.566406 6.21875 -22.828125 C 5.132812 -21.085938 4.59375 -18.265625 4.59375 -14.359375 Z M 4.59375 -12.96875 "/></g></g><g style="fill:#000000;fill-opacity:1;"><g transform="translate(168.689074, 163.811605)"><path style="stroke:none" d="M 2.59375 -27.328125 L 17.828125 -27.328125 L 17.828125 -25.046875 L 5.109375 -25.046875 L 5.109375 -15.0625 L 16.078125 -15.0625 L 16.078125 -12.828125 L 5.109375 -12.828125 L 5.109375 -2.28125 L 17.828125 -2.28125 L 17.828125 0 L 2.59375 0 Z M 2.59375 -27.328125 "/></g></g><g style="fill:#000000;fill-opacity:1;"><g transform="translate(187.915228, 163.811605)"><path style="stroke:none" d="M 21.375 0.28125 L 15.65625 -24.59375 L 9.984375 0.28125 L 6.515625 0.28125 L 1.4375 -27.328125 L 4.09375 -27.328125 L 8.375 -2.84375 L 13.984375 -27.328125 L 17.375 -27.328125 L 22.984375 -2.84375 L 27.25 -27.328125 L 29.921875 -27.328125 L 24.84375 0.28125 Z M 21.375 0.28125 "/></g></g><g style="fill:#000000;fill-opacity:1;"><g transform="translate(219.258429, 163.811605)"><path style="stroke:none" d="M 11.34375 0.390625 C 8.238281 0.390625 5.90625 -0.65625 4.34375 -2.75 C 2.78125 -4.84375 2 -8.25 2 -12.96875 L 2 -14.359375 C 2 -19.097656 2.78125 -22.503906 4.34375 -24.578125 C 5.90625 -26.660156 8.238281 -27.703125 11.34375 -27.703125 C 14.476562 -27.703125 16.828125 -26.660156 18.390625 -24.578125 C 19.953125 -22.503906 20.734375 -19.097656 20.734375 -14.359375 L 20.734375 -12.96875 C 20.734375 -8.25 19.953125 -4.84375 18.390625 -2.75 C 16.828125 -0.65625 14.476562 0.390625 11.34375 0.390625 Z M 11.25 -1.890625 L 11.484375 -1.890625 C 13.773438 -1.890625 15.457031 -2.765625 16.53125 -4.515625 C 17.601562 -6.265625 18.140625 -9.082031 18.140625 -12.96875 L 18.140625 -14.359375 C 18.140625 -18.265625 17.601562 -21.085938 16.53125 -22.828125 C 15.457031 -24.566406 13.773438 -25.4375 11.484375 -25.4375 L 11.25 -25.4375 C 8.957031 -25.4375 7.273438 -24.566406 6.203125 -22.828125 C 5.128906 -21.085938 4.59375 -18.265625 4.59375 -14.359375 L 4.59375 -12.96875 C 4.59375 -9.082031 5.128906 -6.265625 6.203125 -4.515625 C 7.273438 -2.765625 8.957031 -1.890625 11.25 -1.890625 Z M 11.25 -1.890625 "/></g></g><g style="fill:#000000;fill-opacity:1;"><g transform="translate(241.986633, 163.811605)"><path style="stroke:none" d="M 5.109375 -11.109375 L 5.109375 0 L 2.59375 0 L 2.59375 -27.328125 L 10.15625 -27.328125 C 11.132812 -27.328125 12.113281 -27.210938 13.09375 -26.984375 C 14.082031 -26.765625 14.984375 -26.367188 15.796875 -25.796875 C 16.617188 -25.222656 17.28125 -24.429688 17.78125 -23.421875 C 18.28125 -22.421875 18.53125 -21.128906 18.53125 -19.546875 L 18.53125 -18.84375 C 18.53125 -17.394531 18.3125 -16.1875 17.875 -15.21875 C 17.445312 -14.25 16.875 -13.476562 16.15625 -12.90625 C 15.445312 -12.332031 14.660156 -11.90625 13.796875 -11.625 L 18.53125 0 L 15.765625 0 L 11.421875 -11.140625 C 11.210938 -11.117188 11 -11.109375 10.78125 -11.109375 C 10.570312 -11.109375 10.363281 -11.109375 10.15625 -11.109375 Z M 5.109375 -13.375 L 10.234375 -13.375 C 10.816406 -13.375 11.441406 -13.441406 12.109375 -13.578125 C 12.773438 -13.722656 13.398438 -13.992188 13.984375 -14.390625 C 14.566406 -14.796875 15.035156 -15.363281 15.390625 -16.09375 C 15.753906 -16.832031 15.9375 -17.785156 15.9375 -18.953125 L 15.9375 -19.484375 C 15.9375 -20.648438 15.753906 -21.597656 15.390625 -22.328125 C 15.035156 -23.066406 14.566406 -23.632812 13.984375 -24.03125 C 13.398438 -24.425781 12.773438 -24.691406 12.109375 -24.828125 C 11.441406 -24.972656 10.816406 -25.046875 10.234375 -25.046875 L 5.109375 -25.046875 Z M 5.109375 -13.375 "/></g></g><g style="fill:#000000;fill-opacity:1;"><g transform="translate(262.438501, 163.811605)"><path style="stroke:none" d="M 5.109375 -27.328125 L 5.109375 -12.328125 L 15.40625 -27.328125 L 18.5 -27.328125 L 10.375 -15.828125 L 18.5 0 L 15.625 0 L 8.765625 -13.5625 L 5.109375 -8.40625 L 5.109375 0 L 2.59375 0 L 2.59375 -27.328125 Z M 5.109375 -27.328125 "/></g></g><g style="fill:#000000;fill-opacity:1;"><g transform="translate(281.524335, 163.811605)"><path style="stroke:none" d="M 10.09375 -12.96875 C 7.125 -13.363281 5.019531 -14.191406 3.78125 -15.453125 C 2.539062 -16.710938 1.921875 -18.238281 1.921875 -20.03125 L 1.921875 -20.390625 C 1.921875 -22.679688 2.703125 -24.472656 4.265625 -25.765625 C 5.835938 -27.054688 7.921875 -27.703125 10.515625 -27.703125 C 13.566406 -27.703125 15.765625 -26.941406 17.109375 -25.421875 C 18.453125 -23.910156 19.125 -21.742188 19.125 -18.921875 L 19.125 -18.078125 L 16.609375 -18.078125 C 16.609375 -20.671875 16.128906 -22.546875 15.171875 -23.703125 C 14.210938 -24.859375 12.691406 -25.4375 10.609375 -25.4375 L 10.375 -25.4375 C 8.707031 -25.4375 7.3125 -25.015625 6.1875 -24.171875 C 5.070312 -23.328125 4.515625 -22.171875 4.515625 -20.703125 L 4.515625 -20.421875 C 4.515625 -19.460938 4.707031 -18.625 5.09375 -17.90625 C 5.476562 -17.195312 6.144531 -16.609375 7.09375 -16.140625 C 8.039062 -15.679688 9.351562 -15.332031 11.03125 -15.09375 C 14.019531 -14.695312 16.164062 -13.882812 17.46875 -12.65625 C 18.78125 -11.4375 19.4375 -9.773438 19.4375 -7.671875 L 19.4375 -7.328125 C 19.4375 -4.921875 18.628906 -3.03125 17.015625 -1.65625 C 15.410156 -0.289062 13.242188 0.390625 10.515625 0.390625 C 7.617188 0.390625 5.410156 -0.390625 3.890625 -1.953125 C 2.367188 -3.523438 1.609375 -5.722656 1.609375 -8.546875 L 1.609375 -8.890625 L 4.140625 -8.890625 C 4.140625 -6.492188 4.722656 -4.726562 5.890625 -3.59375 C 7.054688 -2.457031 8.5625 -1.890625 10.40625 -1.890625 L 10.65625 -1.890625 C 12.519531 -1.890625 14.015625 -2.347656 15.140625 -3.265625 C 16.273438 -4.191406 16.84375 -5.484375 16.84375 -7.140625 L 16.84375 -7.46875 C 16.84375 -9.070312 16.3125 -10.304688 15.25 -11.171875 C 14.1875 -12.035156 12.46875 -12.632812 10.09375 -12.96875 Z M 10.09375 -12.96875 "/></g></g><path style="fill:none;stroke-width:2;stroke-linecap:butt;stroke-linejoin:miter;stroke:#000000;stroke-opacity:1;stroke-miterlimit:4;" d="M 0.00111509 0.997398 L 24.891742 0.997398 " transform="matrix(0.75,0.000000000000005994,-0.000000000000005994,0.75,244.729632,176.685545)"/><path style="fill:none;stroke-width:2;stroke-linecap:butt;stroke-linejoin:miter;stroke:#000000;stroke-opacity:1;stroke-miterlimit:4;" d="M -0.00166065 0.997398 L 24.894174 0.997398 " transform="matrix(0.75,0,0,0.75,220.216089,176.685545)"/><path style="fill:none;stroke-width:2;stroke-linecap:butt;stroke-linejoin:miter;stroke:#000000;stroke-opacity:1;stroke-miterlimit:4;" d="M -0.00250064 0.997398 L 24.893334 0.997398 " transform="matrix(0.75,0,0,0.75,195.2675,176.685545)"/><path style="fill:none;stroke-width:2;stroke-linecap:butt;stroke-linejoin:miter;stroke:#000000;stroke-opacity:1;stroke-miterlimit:4;" d="M -0.0000680495 0.997398 L 24.890559 0.997398 " transform="matrix(0.75,0,0,0.75,170.753957,176.685545)"/><path style="fill:none;stroke-width:2;stroke-linecap:butt;stroke-linejoin:miter;stroke:#000000;stroke-opacity:1;stroke-miterlimit:4;" d="M 0.000253875 0.997398 L 24.890881 0.997398 " transform="matrix(0.75,0.000000000000005138,-0.000000000000005138,0.75,145.527153,176.685545)"/><path style="fill:none;stroke-width:2;stroke-linecap:butt;stroke-linejoin:miter;stroke:#000000;stroke-opacity:1;stroke-miterlimit:4;" d="M -0.00252187 0.997398 L 24.893313 0.997398 " transform="matrix(0.75,0.000000000000005994,-0.000000000000005994,0.75,121.01361,176.685545)"/><path style="fill:none;stroke-width:2;stroke-linecap:butt;stroke-linejoin:miter;stroke:#000000;stroke-opacity:1;stroke-miterlimit:4;" d="M -0.00220635 0.997398 L 24.893629 0.997398 " transform="matrix(0.75,0.000000000000005138,-0.000000000000005138,0.75,95.786811,176.685545)"/><path style="fill:none;stroke-width:2;stroke-linecap:butt;stroke-linejoin:miter;stroke:#000000;stroke-opacity:1;stroke-miterlimit:4;" d="M -0.000107735 0.99837 L 7.320694 0.99837 C 8.668838 0.99837 9.963272 1.535479 10.919327 2.491534 C 11.87001 3.442218 12.40712 4.736651 12.40712 6.090167 L 12.40712 11.176593 " transform="matrix(0.727273,0,0,0.727273,70.773516,127.348132)"/><path style="fill:none;stroke-width:2;stroke-linecap:butt;stroke-linejoin:miter;stroke:#000000;stroke-opacity:1;stroke-miterlimit:4;" d="M 0.00032611 1.000132 L 24.890953 1.000132 " transform="matrix(0,0.75,-0.75,0,80.828224,142.874755)"/><path style="fill:none;stroke-width:2;stroke-linecap:butt;stroke-linejoin:miter;stroke:#000000;stroke-opacity:1;stroke-miterlimit:4;" d="M -0.000000287271 1.000634 L 33.56771 1.000634 " transform="matrix(-0.75,0,0,-0.75,62.671875,128.848132)"/><g clip-rule="nonzero" clip-path="url(#8840654649)"><g clip-rule="nonzero" clip-path="url(#e950504294)"><path style=" stroke:none;fill-rule:nonzero;fill:#000000;fill-opacity:1;" d="M 46.414062 128.097656 L 52.566406 128.097656 L 52.566406 134.253906 L 46.414062 134.253906 Z M 46.414062 128.097656 "/></g></g><g style="fill:#000000;fill-opacity:1;"><g transform="translate(112.056494, 196.953093)"><path style="stroke:none" d="M 10.3125 -5.5 L 11.515625 -5.5 L 9.15625 0 L 7.796875 0 L 5.859375 -4.3125 L 3.921875 0 L 2.5625 0 L 0.203125 -5.5 L 1.40625 -5.5 L 3.25 -1.203125 L 5.1875 -5.5 L 6.515625 -5.5 L 8.453125 -1.203125 Z M 10.3125 -5.5 "/></g></g><g style="fill:#000000;fill-opacity:1;"><g transform="translate(123.774214, 196.953093)"><path style="stroke:none" d="M 5.53125 -5.59375 C 6.238281 -5.59375 6.847656 -5.5 7.359375 -5.3125 C 7.878906 -5.125 8.28125 -4.828125 8.5625 -4.421875 C 8.84375 -4.015625 8.984375 -3.484375 8.984375 -2.828125 L 8.984375 0 L 7.859375 0 L 7.859375 -2.59375 C 7.859375 -3.082031 7.753906 -3.472656 7.546875 -3.765625 C 7.347656 -4.066406 7.070312 -4.285156 6.71875 -4.421875 C 6.363281 -4.554688 5.960938 -4.625 5.515625 -4.625 C 5.046875 -4.625 4.613281 -4.539062 4.21875 -4.375 C 3.820312 -4.21875 3.476562 -4.003906 3.1875 -3.734375 C 2.894531 -3.472656 2.671875 -3.179688 2.515625 -2.859375 C 2.359375 -2.546875 2.28125 -2.238281 2.28125 -1.9375 L 2.28125 0 L 1.171875 0 L 1.171875 -7.265625 L 2.28125 -7.265625 L 2.28125 -4.046875 C 2.632812 -4.535156 3.097656 -4.914062 3.671875 -5.1875 C 4.253906 -5.457031 4.875 -5.59375 5.53125 -5.59375 Z M 5.53125 -5.59375 "/></g></g><g style="fill:#000000;fill-opacity:1;"><g transform="translate(133.810121, 196.953093)"><path style="stroke:none" d="M 4.4375 0.109375 C 3.519531 0.109375 2.789062 -0.0078125 2.25 -0.25 C 1.71875 -0.488281 1.335938 -0.8125 1.109375 -1.21875 C 0.878906 -1.625 0.765625 -2.066406 0.765625 -2.546875 L 0.765625 -2.953125 C 0.765625 -3.316406 0.828125 -3.660156 0.953125 -3.984375 C 1.078125 -4.304688 1.28125 -4.585938 1.5625 -4.828125 C 1.84375 -5.066406 2.226562 -5.253906 2.71875 -5.390625 C 3.21875 -5.523438 3.832031 -5.59375 4.5625 -5.59375 C 5.613281 -5.59375 6.4375 -5.457031 7.03125 -5.1875 C 7.632812 -4.914062 7.9375 -4.503906 7.9375 -3.953125 L 7.9375 -3.8125 C 7.9375 -3.519531 7.851562 -3.273438 7.6875 -3.078125 C 7.53125 -2.878906 7.320312 -2.71875 7.0625 -2.59375 C 6.8125 -2.46875 6.535156 -2.367188 6.234375 -2.296875 C 5.929688 -2.234375 5.628906 -2.1875 5.328125 -2.15625 C 5.035156 -2.132812 4.773438 -2.125 4.546875 -2.125 C 4.347656 -2.125 4.085938 -2.128906 3.765625 -2.140625 C 3.441406 -2.160156 3.113281 -2.1875 2.78125 -2.21875 C 2.445312 -2.257812 2.144531 -2.296875 1.875 -2.328125 C 1.914062 -1.859375 2.144531 -1.492188 2.5625 -1.234375 C 2.988281 -0.972656 3.613281 -0.84375 4.4375 -0.84375 C 5.03125 -0.84375 5.5 -0.890625 5.84375 -0.984375 C 6.1875 -1.078125 6.4375 -1.207031 6.59375 -1.375 C 6.757812 -1.550781 6.863281 -1.75 6.90625 -1.96875 L 8.03125 -1.96875 C 8.019531 -1.582031 7.882812 -1.234375 7.625 -0.921875 C 7.363281 -0.617188 6.972656 -0.367188 6.453125 -0.171875 C 5.929688 0.015625 5.257812 0.109375 4.4375 0.109375 Z M 4.5625 -3.125 C 5.082031 -3.125 5.492188 -3.144531 5.796875 -3.1875 C 6.109375 -3.226562 6.332031 -3.285156 6.46875 -3.359375 C 6.613281 -3.429688 6.707031 -3.515625 6.75 -3.609375 C 6.789062 -3.703125 6.8125 -3.804688 6.8125 -3.921875 C 6.8125 -4.054688 6.753906 -4.175781 6.640625 -4.28125 C 6.535156 -4.382812 6.320312 -4.46875 6 -4.53125 C 5.6875 -4.59375 5.207031 -4.625 4.5625 -4.625 C 3.875 -4.625 3.332031 -4.5625 2.9375 -4.4375 C 2.550781 -4.320312 2.28125 -4.164062 2.125 -3.96875 C 1.96875 -3.769531 1.890625 -3.550781 1.890625 -3.3125 C 2.179688 -3.269531 2.5 -3.234375 2.84375 -3.203125 C 3.1875 -3.179688 3.515625 -3.160156 3.828125 -3.140625 C 4.140625 -3.128906 4.382812 -3.125 4.5625 -3.125 Z M 4.5625 -3.125 "/></g></g><g style="fill:#000000;fill-opacity:1;"><g transform="translate(142.603909, 196.953093)"><path style="stroke:none" d="M 4.6875 -5.609375 C 5.09375 -5.628906 5.421875 -5.632812 5.671875 -5.625 C 5.929688 -5.625 6.140625 -5.601562 6.296875 -5.5625 L 6.203125 -4.546875 C 6.015625 -4.566406 5.835938 -4.582031 5.671875 -4.59375 C 5.515625 -4.613281 5.335938 -4.625 5.140625 -4.625 C 4.222656 -4.625 3.515625 -4.429688 3.015625 -4.046875 C 2.523438 -3.660156 2.28125 -3.050781 2.28125 -2.21875 L 2.28125 0 L 1.171875 0 L 1.171875 -5.5 L 2.28125 -5.5 L 2.28125 -4.40625 C 2.789062 -5.070312 3.59375 -5.472656 4.6875 -5.609375 Z M 4.6875 -5.609375 "/></g></g><g style="fill:#000000;fill-opacity:1;"><g transform="translate(149.386055, 196.953093)"><path style="stroke:none" d="M 4.4375 0.109375 C 3.519531 0.109375 2.789062 -0.0078125 2.25 -0.25 C 1.71875 -0.488281 1.335938 -0.8125 1.109375 -1.21875 C 0.878906 -1.625 0.765625 -2.066406 0.765625 -2.546875 L 0.765625 -2.953125 C 0.765625 -3.316406 0.828125 -3.660156 0.953125 -3.984375 C 1.078125 -4.304688 1.28125 -4.585938 1.5625 -4.828125 C 1.84375 -5.066406 2.226562 -5.253906 2.71875 -5.390625 C 3.21875 -5.523438 3.832031 -5.59375 4.5625 -5.59375 C 5.613281 -5.59375 6.4375 -5.457031 7.03125 -5.1875 C 7.632812 -4.914062 7.9375 -4.503906 7.9375 -3.953125 L 7.9375 -3.8125 C 7.9375 -3.519531 7.851562 -3.273438 7.6875 -3.078125 C 7.53125 -2.878906 7.320312 -2.71875 7.0625 -2.59375 C 6.8125 -2.46875 6.535156 -2.367188 6.234375 -2.296875 C 5.929688 -2.234375 5.628906 -2.1875 5.328125 -2.15625 C 5.035156 -2.132812 4.773438 -2.125 4.546875 -2.125 C 4.347656 -2.125 4.085938 -2.128906 3.765625 -2.140625 C 3.441406 -2.160156 3.113281 -2.1875 2.78125 -2.21875 C 2.445312 -2.257812 2.144531 -2.296875 1.875 -2.328125 C 1.914062 -1.859375 2.144531 -1.492188 2.5625 -1.234375 C 2.988281 -0.972656 3.613281 -0.84375 4.4375 -0.84375 C 5.03125 -0.84375 5.5 -0.890625 5.84375 -0.984375 C 6.1875 -1.078125 6.4375 -1.207031 6.59375 -1.375 C 6.757812 -1.550781 6.863281 -1.75 6.90625 -1.96875 L 8.03125 -1.96875 C 8.019531 -1.582031 7.882812 -1.234375 7.625 -0.921875 C 7.363281 -0.617188 6.972656 -0.367188 6.453125 -0.171875 C 5.929688 0.015625 5.257812 0.109375 4.4375 0.109375 Z M 4.5625 -3.125 C 5.082031 -3.125 5.492188 -3.144531 5.796875 -3.1875 C 6.109375 -3.226562 6.332031 -3.285156 6.46875 -3.359375 C 6.613281 -3.429688 6.707031 -3.515625 6.75 -3.609375 C 6.789062 -3.703125 6.8125 -3.804688 6.8125 -3.921875 C 6.8125 -4.054688 6.753906 -4.175781 6.640625 -4.28125 C 6.535156 -4.382812 6.320312 -4.46875 6 -4.53125 C 5.6875 -4.59375 5.207031 -4.625 4.5625 -4.625 C 3.875 -4.625 3.332031 -4.5625 2.9375 -4.4375 C 2.550781 -4.320312 2.28125 -4.164062 2.125 -3.96875 C 1.96875 -3.769531 1.890625 -3.550781 1.890625 -3.3125 C 2.179688 -3.269531 2.5 -3.234375 2.84375 -3.203125 C 3.1875 -3.179688 3.515625 -3.160156 3.828125 -3.140625 C 4.140625 -3.128906 4.382812 -3.125 4.5625 -3.125 Z M 4.5625 -3.125 "/></g></g><g style="fill:#000000;fill-opacity:1;"><g transform="translate(158.179843, 196.953093)"><path style="stroke:none" d=""/></g></g><g style="fill:#000000;fill-opacity:1;"><g transform="translate(162.576732, 196.953093)"><path style="stroke:none" d="M 6.25 -5.5 L 7.515625 -5.5 L 4.484375 0 L 3.21875 0 L 0.203125 -5.5 L 1.46875 -5.5 L 3.859375 -1.15625 Z M 6.25 -5.5 "/></g></g><g style="fill:#000000;fill-opacity:1;"><g transform="translate(170.293276, 196.953093)"><path style="stroke:none" d="M 1.28125 -6.046875 C 0.925781 -6.046875 0.75 -6.1875 0.75 -6.46875 L 0.75 -6.515625 C 0.75 -6.796875 0.925781 -6.9375 1.28125 -6.9375 C 1.632812 -6.9375 1.8125 -6.796875 1.8125 -6.515625 L 1.8125 -6.484375 C 1.8125 -6.191406 1.632812 -6.046875 1.28125 -6.046875 Z M 0.71875 0 L 0.71875 -5.5 L 1.8125 -5.5 L 1.8125 0 Z M 0.71875 0 "/></g></g><g style="fill:#000000;fill-opacity:1;"><g transform="translate(172.821494, 196.953093)"><path style="stroke:none" d="M 7.453125 -3.625 L 6.34375 -3.625 L 6.34375 -3.84375 C 6.34375 -4.070312 6.175781 -4.269531 5.84375 -4.4375 C 5.507812 -4.613281 4.96875 -4.703125 4.21875 -4.703125 C 3.414062 -4.703125 2.828125 -4.648438 2.453125 -4.546875 C 2.085938 -4.453125 1.90625 -4.296875 1.90625 -4.078125 L 1.90625 -4.046875 C 1.90625 -3.972656 1.925781 -3.898438 1.96875 -3.828125 C 2.007812 -3.765625 2.097656 -3.703125 2.234375 -3.640625 C 2.367188 -3.578125 2.582031 -3.515625 2.875 -3.453125 C 3.175781 -3.398438 3.582031 -3.34375 4.09375 -3.28125 C 4.78125 -3.207031 5.367188 -3.113281 5.859375 -3 C 6.347656 -2.894531 6.726562 -2.738281 7 -2.53125 C 7.269531 -2.320312 7.40625 -2.023438 7.40625 -1.640625 C 7.394531 -1.035156 7.085938 -0.59375 6.484375 -0.3125 C 5.890625 -0.03125 5.066406 0.109375 4.015625 0.109375 C 2.984375 0.109375 2.179688 -0.046875 1.609375 -0.359375 C 1.046875 -0.679688 0.765625 -1.160156 0.765625 -1.796875 L 0.765625 -2.03125 L 1.890625 -2.03125 L 1.890625 -1.796875 C 1.890625 -1.484375 2.054688 -1.238281 2.390625 -1.0625 C 2.734375 -0.894531 3.273438 -0.8125 4.015625 -0.8125 C 5.523438 -0.8125 6.28125 -1.035156 6.28125 -1.484375 L 6.28125 -1.546875 C 6.28125 -1.609375 6.257812 -1.671875 6.21875 -1.734375 C 6.175781 -1.796875 6.078125 -1.851562 5.921875 -1.90625 C 5.773438 -1.96875 5.546875 -2.023438 5.234375 -2.078125 C 4.929688 -2.140625 4.515625 -2.203125 3.984375 -2.265625 C 3.316406 -2.347656 2.742188 -2.445312 2.265625 -2.5625 C 1.796875 -2.675781 1.429688 -2.84375 1.171875 -3.0625 C 0.921875 -3.289062 0.789062 -3.609375 0.78125 -4.015625 C 0.789062 -4.554688 1.097656 -4.957031 1.703125 -5.21875 C 2.304688 -5.476562 3.144531 -5.609375 4.21875 -5.609375 C 5.25 -5.609375 6.046875 -5.457031 6.609375 -5.15625 C 7.171875 -4.863281 7.453125 -4.425781 7.453125 -3.84375 Z M 0.78125 -4 L 0.78125 -4.046875 L 0.78125 -4.015625 C 0.78125 -4.015625 0.78125 -4.007812 0.78125 -4 Z M 7.40625 -1.65625 L 7.40625 -1.625 L 7.40625 -1.640625 C 7.40625 -1.648438 7.40625 -1.65625 7.40625 -1.65625 Z M 7.40625 -1.65625 "/></g></g><g style="fill:#000000;fill-opacity:1;"><g transform="translate(181.043684, 196.953093)"><path style="stroke:none" d="M 1.28125 -6.046875 C 0.925781 -6.046875 0.75 -6.1875 0.75 -6.46875 L 0.75 -6.515625 C 0.75 -6.796875 0.925781 -6.9375 1.28125 -6.9375 C 1.632812 -6.9375 1.8125 -6.796875 1.8125 -6.515625 L 1.8125 -6.484375 C 1.8125 -6.191406 1.632812 -6.046875 1.28125 -6.046875 Z M 0.71875 0 L 0.71875 -5.5 L 1.8125 -5.5 L 1.8125 0 Z M 0.71875 0 "/></g></g><g style="fill:#000000;fill-opacity:1;"><g transform="translate(183.571901, 196.953093)"><path style="stroke:none" d="M 4.546875 0.109375 C 3.335938 0.109375 2.40625 -0.109375 1.75 -0.546875 C 1.09375 -0.992188 0.765625 -1.664062 0.765625 -2.5625 L 0.765625 -2.921875 C 0.765625 -3.847656 1.09375 -4.523438 1.75 -4.953125 C 2.40625 -5.378906 3.335938 -5.59375 4.546875 -5.59375 C 5.765625 -5.59375 6.703125 -5.378906 7.359375 -4.953125 C 8.015625 -4.535156 8.34375 -3.867188 8.34375 -2.953125 L 8.34375 -2.609375 C 8.34375 -1.710938 8.015625 -1.035156 7.359375 -0.578125 C 6.703125 -0.117188 5.765625 0.109375 4.546875 0.109375 Z M 4.546875 -0.90625 C 5.460938 -0.90625 6.132812 -1.03125 6.5625 -1.28125 C 7 -1.53125 7.21875 -1.972656 7.21875 -2.609375 L 7.21875 -2.953125 C 7.21875 -3.378906 7.125 -3.707031 6.9375 -3.9375 C 6.75 -4.175781 6.457031 -4.34375 6.0625 -4.4375 C 5.675781 -4.539062 5.171875 -4.59375 4.546875 -4.59375 C 3.671875 -4.59375 3.007812 -4.472656 2.5625 -4.234375 C 2.113281 -3.992188 1.890625 -3.554688 1.890625 -2.921875 L 1.890625 -2.5625 C 1.890625 -1.9375 2.109375 -1.503906 2.546875 -1.265625 C 2.992188 -1.023438 3.660156 -0.90625 4.546875 -0.90625 Z M 4.546875 -0.90625 "/></g></g><g style="fill:#000000;fill-opacity:1;"><g transform="translate(192.673467, 196.953093)"><path style="stroke:none" d="M 5.53125 -5.59375 C 6.238281 -5.59375 6.847656 -5.5 7.359375 -5.3125 C 7.878906 -5.125 8.28125 -4.828125 8.5625 -4.421875 C 8.84375 -4.015625 8.984375 -3.484375 8.984375 -2.828125 L 8.984375 0 L 7.859375 0 L 7.859375 -2.59375 C 7.859375 -3.082031 7.753906 -3.472656 7.546875 -3.765625 C 7.347656 -4.066406 7.070312 -4.285156 6.71875 -4.421875 C 6.363281 -4.554688 5.960938 -4.625 5.515625 -4.625 C 5.046875 -4.625 4.613281 -4.539062 4.21875 -4.375 C 3.820312 -4.21875 3.476562 -4.003906 3.1875 -3.734375 C 2.894531 -3.472656 2.671875 -3.179688 2.515625 -2.859375 C 2.359375 -2.546875 2.28125 -2.238281 2.28125 -1.9375 L 2.28125 0 L 1.171875 0 L 1.171875 -5.5 L 2.28125 -5.5 L 2.28125 -4.046875 C 2.632812 -4.535156 3.097656 -4.914062 3.671875 -5.1875 C 4.253906 -5.457031 4.875 -5.59375 5.53125 -5.59375 Z M 5.53125 -5.59375 "/></g></g><g style="fill:#000000;fill-opacity:1;"><g transform="translate(202.709374, 196.953093)"><path style="stroke:none" d=""/></g></g><g style="fill:#000000;fill-opacity:1;"><g transform="translate(207.106262, 196.953093)"><path style="stroke:none" d="M 4.171875 -0.953125 L 4.40625 -0.09375 C 4.050781 0.0390625 3.675781 0.109375 3.28125 0.109375 C 2.78125 0.109375 2.382812 0.0390625 2.09375 -0.09375 C 1.800781 -0.238281 1.582031 -0.414062 1.4375 -0.625 C 1.289062 -0.84375 1.195312 -1.0625 1.15625 -1.28125 C 1.113281 -1.507812 1.09375 -1.710938 1.09375 -1.890625 L 1.09375 -4.515625 L 0.390625 -4.515625 L 0.390625 -5.5 L 1.09375 -5.5 L 1.09375 -6.59375 L 2.203125 -6.59375 L 2.203125 -5.5 L 4.25 -5.5 L 4.25 -4.515625 L 2.203125 -4.515625 L 2.203125 -1.890625 C 2.203125 -1.628906 2.253906 -1.425781 2.359375 -1.28125 C 2.472656 -1.132812 2.613281 -1.03125 2.78125 -0.96875 C 2.945312 -0.90625 3.117188 -0.875 3.296875 -0.875 C 3.472656 -0.875 3.632812 -0.878906 3.78125 -0.890625 C 3.925781 -0.898438 4.054688 -0.921875 4.171875 -0.953125 Z M 4.171875 -0.953125 "/></g></g><g style="fill:#000000;fill-opacity:1;"><g transform="translate(211.777958, 196.953093)"><path style="stroke:none" d="M 4.546875 -5.578125 C 5.191406 -5.578125 5.726562 -5.523438 6.15625 -5.421875 C 6.582031 -5.316406 6.914062 -5.179688 7.15625 -5.015625 C 7.40625 -4.859375 7.585938 -4.691406 7.703125 -4.515625 C 7.816406 -4.347656 7.890625 -4.191406 7.921875 -4.046875 C 7.953125 -3.910156 7.96875 -3.8125 7.96875 -3.75 L 7.96875 -1.171875 C 7.96875 -0.941406 7.972656 -0.75 7.984375 -0.59375 C 7.992188 -0.4375 8.023438 -0.238281 8.078125 0 L 6.953125 0 C 6.929688 -0.09375 6.910156 -0.195312 6.890625 -0.3125 C 6.878906 -0.4375 6.875 -0.578125 6.875 -0.734375 C 6.738281 -0.597656 6.539062 -0.460938 6.28125 -0.328125 C 6.019531 -0.191406 5.675781 -0.0820312 5.25 0 C 4.832031 0.0703125 4.304688 0.109375 3.671875 0.109375 C 3.085938 0.109375 2.617188 0.0546875 2.265625 -0.046875 C 1.910156 -0.148438 1.640625 -0.273438 1.453125 -0.421875 C 1.265625 -0.578125 1.140625 -0.738281 1.078125 -0.90625 C 1.015625 -1.082031 0.984375 -1.242188 0.984375 -1.390625 L 0.984375 -1.546875 C 0.984375 -1.992188 1.09375 -2.332031 1.3125 -2.5625 C 1.539062 -2.789062 1.875 -2.957031 2.3125 -3.0625 C 2.757812 -3.164062 3.316406 -3.242188 3.984375 -3.296875 C 4.703125 -3.359375 5.269531 -3.410156 5.6875 -3.453125 C 6.101562 -3.492188 6.398438 -3.535156 6.578125 -3.578125 C 6.753906 -3.628906 6.84375 -3.675781 6.84375 -3.71875 C 6.84375 -3.769531 6.820312 -3.84375 6.78125 -3.9375 C 6.75 -4.03125 6.660156 -4.125 6.515625 -4.21875 C 6.367188 -4.320312 6.140625 -4.410156 5.828125 -4.484375 C 5.523438 -4.554688 5.097656 -4.59375 4.546875 -4.59375 C 3.929688 -4.59375 3.460938 -4.550781 3.140625 -4.46875 C 2.816406 -4.394531 2.597656 -4.285156 2.484375 -4.140625 C 2.367188 -3.992188 2.3125 -3.8125 2.3125 -3.59375 L 1.1875 -3.59375 C 1.1875 -3.78125 1.226562 -3.984375 1.3125 -4.203125 C 1.394531 -4.429688 1.550781 -4.648438 1.78125 -4.859375 C 2.007812 -5.066406 2.34375 -5.238281 2.78125 -5.375 C 3.226562 -5.507812 3.816406 -5.578125 4.546875 -5.578125 Z M 3.671875 -0.875 C 4.828125 -0.875 5.644531 -1.015625 6.125 -1.296875 C 6.613281 -1.585938 6.859375 -1.976562 6.859375 -2.46875 L 6.859375 -2.640625 C 6.554688 -2.585938 6.222656 -2.535156 5.859375 -2.484375 C 5.492188 -2.441406 5.164062 -2.410156 4.875 -2.390625 C 4.6875 -2.390625 4.503906 -2.378906 4.328125 -2.359375 C 4.148438 -2.335938 3.960938 -2.320312 3.765625 -2.3125 C 3.253906 -2.269531 2.882812 -2.210938 2.65625 -2.140625 C 2.425781 -2.066406 2.273438 -1.976562 2.203125 -1.875 C 2.140625 -1.78125 2.109375 -1.671875 2.109375 -1.546875 L 2.109375 -1.5 C 2.109375 -1.375 2.144531 -1.265625 2.21875 -1.171875 C 2.289062 -1.078125 2.4375 -1.003906 2.65625 -0.953125 C 2.875 -0.898438 3.210938 -0.875 3.671875 -0.875 Z M 3.671875 -0.875 "/></g></g><g style="fill:#000000;fill-opacity:1;"><g transform="translate(220.923492, 196.953093)"><path style="stroke:none" d="M 6.203125 0 L 3.453125 -2.328125 L 2.28125 -2.328125 L 2.28125 0 L 1.171875 0 L 1.171875 -7.265625 L 2.28125 -7.265625 L 2.28125 -3.4375 L 3.5 -3.4375 L 5.90625 -5.5 L 7.640625 -5.5 L 4.609375 -2.859375 L 7.890625 0 Z M 6.203125 0 "/></g></g><g style="fill:#000000;fill-opacity:1;"><g transform="translate(228.991782, 196.953093)"><path style="stroke:none" d="M 4.4375 0.109375 C 3.519531 0.109375 2.789062 -0.0078125 2.25 -0.25 C 1.71875 -0.488281 1.335938 -0.8125 1.109375 -1.21875 C 0.878906 -1.625 0.765625 -2.066406 0.765625 -2.546875 L 0.765625 -2.953125 C 0.765625 -3.316406 0.828125 -3.660156 0.953125 -3.984375 C 1.078125 -4.304688 1.28125 -4.585938 1.5625 -4.828125 C 1.84375 -5.066406 2.226562 -5.253906 2.71875 -5.390625 C 3.21875 -5.523438 3.832031 -5.59375 4.5625 -5.59375 C 5.613281 -5.59375 6.4375 -5.457031 7.03125 -5.1875 C 7.632812 -4.914062 7.9375 -4.503906 7.9375 -3.953125 L 7.9375 -3.8125 C 7.9375 -3.519531 7.851562 -3.273438 7.6875 -3.078125 C 7.53125 -2.878906 7.320312 -2.71875 7.0625 -2.59375 C 6.8125 -2.46875 6.535156 -2.367188 6.234375 -2.296875 C 5.929688 -2.234375 5.628906 -2.1875 5.328125 -2.15625 C 5.035156 -2.132812 4.773438 -2.125 4.546875 -2.125 C 4.347656 -2.125 4.085938 -2.128906 3.765625 -2.140625 C 3.441406 -2.160156 3.113281 -2.1875 2.78125 -2.21875 C 2.445312 -2.257812 2.144531 -2.296875 1.875 -2.328125 C 1.914062 -1.859375 2.144531 -1.492188 2.5625 -1.234375 C 2.988281 -0.972656 3.613281 -0.84375 4.4375 -0.84375 C 5.03125 -0.84375 5.5 -0.890625 5.84375 -0.984375 C 6.1875 -1.078125 6.4375 -1.207031 6.59375 -1.375 C 6.757812 -1.550781 6.863281 -1.75 6.90625 -1.96875 L 8.03125 -1.96875 C 8.019531 -1.582031 7.882812 -1.234375 7.625 -0.921875 C 7.363281 -0.617188 6.972656 -0.367188 6.453125 -0.171875 C 5.929688 0.015625 5.257812 0.109375 4.4375 0.109375 Z M 4.5625 -3.125 C 5.082031 -3.125 5.492188 -3.144531 5.796875 -3.1875 C 6.109375 -3.226562 6.332031 -3.285156 6.46875 -3.359375 C 6.613281 -3.429688 6.707031 -3.515625 6.75 -3.609375 C 6.789062 -3.703125 6.8125 -3.804688 6.8125 -3.921875 C 6.8125 -4.054688 6.753906 -4.175781 6.640625 -4.28125 C 6.535156 -4.382812 6.320312 -4.46875 6 -4.53125 C 5.6875 -4.59375 5.207031 -4.625 4.5625 -4.625 C 3.875 -4.625 3.332031 -4.5625 2.9375 -4.4375 C 2.550781 -4.320312 2.28125 -4.164062 2.125 -3.96875 C 1.96875 -3.769531 1.890625 -3.550781 1.890625 -3.3125 C 2.179688 -3.269531 2.5 -3.234375 2.84375 -3.203125 C 3.1875 -3.179688 3.515625 -3.160156 3.828125 -3.140625 C 4.140625 -3.128906 4.382812 -3.125 4.5625 -3.125 Z M 4.5625 -3.125 "/></g></g><g style="fill:#000000;fill-opacity:1;"><g transform="translate(237.78557, 196.953093)"><path style="stroke:none" d="M 7.453125 -3.625 L 6.34375 -3.625 L 6.34375 -3.84375 C 6.34375 -4.070312 6.175781 -4.269531 5.84375 -4.4375 C 5.507812 -4.613281 4.96875 -4.703125 4.21875 -4.703125 C 3.414062 -4.703125 2.828125 -4.648438 2.453125 -4.546875 C 2.085938 -4.453125 1.90625 -4.296875 1.90625 -4.078125 L 1.90625 -4.046875 C 1.90625 -3.972656 1.925781 -3.898438 1.96875 -3.828125 C 2.007812 -3.765625 2.097656 -3.703125 2.234375 -3.640625 C 2.367188 -3.578125 2.582031 -3.515625 2.875 -3.453125 C 3.175781 -3.398438 3.582031 -3.34375 4.09375 -3.28125 C 4.78125 -3.207031 5.367188 -3.113281 5.859375 -3 C 6.347656 -2.894531 6.726562 -2.738281 7 -2.53125 C 7.269531 -2.320312 7.40625 -2.023438 7.40625 -1.640625 C 7.394531 -1.035156 7.085938 -0.59375 6.484375 -0.3125 C 5.890625 -0.03125 5.066406 0.109375 4.015625 0.109375 C 2.984375 0.109375 2.179688 -0.046875 1.609375 -0.359375 C 1.046875 -0.679688 0.765625 -1.160156 0.765625 -1.796875 L 0.765625 -2.03125 L 1.890625 -2.03125 L 1.890625 -1.796875 C 1.890625 -1.484375 2.054688 -1.238281 2.390625 -1.0625 C 2.734375 -0.894531 3.273438 -0.8125 4.015625 -0.8125 C 5.523438 -0.8125 6.28125 -1.035156 6.28125 -1.484375 L 6.28125 -1.546875 C 6.28125 -1.609375 6.257812 -1.671875 6.21875 -1.734375 C 6.175781 -1.796875 6.078125 -1.851562 5.921875 -1.90625 C 5.773438 -1.96875 5.546875 -2.023438 5.234375 -2.078125 C 4.929688 -2.140625 4.515625 -2.203125 3.984375 -2.265625 C 3.316406 -2.347656 2.742188 -2.445312 2.265625 -2.5625 C 1.796875 -2.675781 1.429688 -2.84375 1.171875 -3.0625 C 0.921875 -3.289062 0.789062 -3.609375 0.78125 -4.015625 C 0.789062 -4.554688 1.097656 -4.957031 1.703125 -5.21875 C 2.304688 -5.476562 3.144531 -5.609375 4.21875 -5.609375 C 5.25 -5.609375 6.046875 -5.457031 6.609375 -5.15625 C 7.171875 -4.863281 7.453125 -4.425781 7.453125 -3.84375 Z M 0.78125 -4 L 0.78125 -4.046875 L 0.78125 -4.015625 C 0.78125 -4.015625 0.78125 -4.007812 0.78125 -4 Z M 7.40625 -1.65625 L 7.40625 -1.625 L 7.40625 -1.640625 C 7.40625 -1.648438 7.40625 -1.65625 7.40625 -1.65625 Z M 7.40625 -1.65625 "/></g></g><g style="fill:#000000;fill-opacity:1;"><g transform="translate(246.00776, 196.953093)"><path style="stroke:none" d=""/></g></g><g style="fill:#000000;fill-opacity:1;"><g transform="translate(250.404649, 196.953093)"><path style="stroke:none" d="M 7.453125 -3.625 L 6.34375 -3.625 L 6.34375 -3.84375 C 6.34375 -4.070312 6.175781 -4.269531 5.84375 -4.4375 C 5.507812 -4.613281 4.96875 -4.703125 4.21875 -4.703125 C 3.414062 -4.703125 2.828125 -4.648438 2.453125 -4.546875 C 2.085938 -4.453125 1.90625 -4.296875 1.90625 -4.078125 L 1.90625 -4.046875 C 1.90625 -3.972656 1.925781 -3.898438 1.96875 -3.828125 C 2.007812 -3.765625 2.097656 -3.703125 2.234375 -3.640625 C 2.367188 -3.578125 2.582031 -3.515625 2.875 -3.453125 C 3.175781 -3.398438 3.582031 -3.34375 4.09375 -3.28125 C 4.78125 -3.207031 5.367188 -3.113281 5.859375 -3 C 6.347656 -2.894531 6.726562 -2.738281 7 -2.53125 C 7.269531 -2.320312 7.40625 -2.023438 7.40625 -1.640625 C 7.394531 -1.035156 7.085938 -0.59375 6.484375 -0.3125 C 5.890625 -0.03125 5.066406 0.109375 4.015625 0.109375 C 2.984375 0.109375 2.179688 -0.046875 1.609375 -0.359375 C 1.046875 -0.679688 0.765625 -1.160156 0.765625 -1.796875 L 0.765625 -2.03125 L 1.890625 -2.03125 L 1.890625 -1.796875 C 1.890625 -1.484375 2.054688 -1.238281 2.390625 -1.0625 C 2.734375 -0.894531 3.273438 -0.8125 4.015625 -0.8125 C 5.523438 -0.8125 6.28125 -1.035156 6.28125 -1.484375 L 6.28125 -1.546875 C 6.28125 -1.609375 6.257812 -1.671875 6.21875 -1.734375 C 6.175781 -1.796875 6.078125 -1.851562 5.921875 -1.90625 C 5.773438 -1.96875 5.546875 -2.023438 5.234375 -2.078125 C 4.929688 -2.140625 4.515625 -2.203125 3.984375 -2.265625 C 3.316406 -2.347656 2.742188 -2.445312 2.265625 -2.5625 C 1.796875 -2.675781 1.429688 -2.84375 1.171875 -3.0625 C 0.921875 -3.289062 0.789062 -3.609375 0.78125 -4.015625 C 0.789062 -4.554688 1.097656 -4.957031 1.703125 -5.21875 C 2.304688 -5.476562 3.144531 -5.609375 4.21875 -5.609375 C 5.25 -5.609375 6.046875 -5.457031 6.609375 -5.15625 C 7.171875 -4.863281 7.453125 -4.425781 7.453125 -3.84375 Z M 0.78125 -4 L 0.78125 -4.046875 L 0.78125 -4.015625 C 0.78125 -4.015625 0.78125 -4.007812 0.78125 -4 Z M 7.40625 -1.65625 L 7.40625 -1.625 L 7.40625 -1.640625 C 7.40625 -1.648438 7.40625 -1.65625 7.40625 -1.65625 Z M 7.40625 -1.65625 "/></g></g><g style="fill:#000000;fill-opacity:1;"><g transform="translate(258.626839, 196.953093)"><path style="stroke:none" d="M 5.53125 -5.59375 C 6.238281 -5.59375 6.847656 -5.5 7.359375 -5.3125 C 7.878906 -5.125 8.28125 -4.828125 8.5625 -4.421875 C 8.84375 -4.015625 8.984375 -3.484375 8.984375 -2.828125 L 8.984375 0 L 7.859375 0 L 7.859375 -2.59375 C 7.859375 -3.082031 7.753906 -3.472656 7.546875 -3.765625 C 7.347656 -4.066406 7.070312 -4.285156 6.71875 -4.421875 C 6.363281 -4.554688 5.960938 -4.625 5.515625 -4.625 C 5.046875 -4.625 4.613281 -4.539062 4.21875 -4.375 C 3.820312 -4.21875 3.476562 -4.003906 3.1875 -3.734375 C 2.894531 -3.472656 2.671875 -3.179688 2.515625 -2.859375 C 2.359375 -2.546875 2.28125 -2.238281 2.28125 -1.9375 L 2.28125 0 L 1.171875 0 L 1.171875 -7.265625 L 2.28125 -7.265625 L 2.28125 -4.046875 C 2.632812 -4.535156 3.097656 -4.914062 3.671875 -5.1875 C 4.253906 -5.457031 4.875 -5.59375 5.53125 -5.59375 Z M 5.53125 -5.59375 "/></g></g><g style="fill:#000000;fill-opacity:1;"><g transform="translate(268.662746, 196.953093)"><path style="stroke:none" d="M 4.546875 -5.578125 C 5.191406 -5.578125 5.726562 -5.523438 6.15625 -5.421875 C 6.582031 -5.316406 6.914062 -5.179688 7.15625 -5.015625 C 7.40625 -4.859375 7.585938 -4.691406 7.703125 -4.515625 C 7.816406 -4.347656 7.890625 -4.191406 7.921875 -4.046875 C 7.953125 -3.910156 7.96875 -3.8125 7.96875 -3.75 L 7.96875 -1.171875 C 7.96875 -0.941406 7.972656 -0.75 7.984375 -0.59375 C 7.992188 -0.4375 8.023438 -0.238281 8.078125 0 L 6.953125 0 C 6.929688 -0.09375 6.910156 -0.195312 6.890625 -0.3125 C 6.878906 -0.4375 6.875 -0.578125 6.875 -0.734375 C 6.738281 -0.597656 6.539062 -0.460938 6.28125 -0.328125 C 6.019531 -0.191406 5.675781 -0.0820312 5.25 0 C 4.832031 0.0703125 4.304688 0.109375 3.671875 0.109375 C 3.085938 0.109375 2.617188 0.0546875 2.265625 -0.046875 C 1.910156 -0.148438 1.640625 -0.273438 1.453125 -0.421875 C 1.265625 -0.578125 1.140625 -0.738281 1.078125 -0.90625 C 1.015625 -1.082031 0.984375 -1.242188 0.984375 -1.390625 L 0.984375 -1.546875 C 0.984375 -1.992188 1.09375 -2.332031 1.3125 -2.5625 C 1.539062 -2.789062 1.875 -2.957031 2.3125 -3.0625 C 2.757812 -3.164062 3.316406 -3.242188 3.984375 -3.296875 C 4.703125 -3.359375 5.269531 -3.410156 5.6875 -3.453125 C 6.101562 -3.492188 6.398438 -3.535156 6.578125 -3.578125 C 6.753906 -3.628906 6.84375 -3.675781 6.84375 -3.71875 C 6.84375 -3.769531 6.820312 -3.84375 6.78125 -3.9375 C 6.75 -4.03125 6.660156 -4.125 6.515625 -4.21875 C 6.367188 -4.320312 6.140625 -4.410156 5.828125 -4.484375 C 5.523438 -4.554688 5.097656 -4.59375 4.546875 -4.59375 C 3.929688 -4.59375 3.460938 -4.550781 3.140625 -4.46875 C 2.816406 -4.394531 2.597656 -4.285156 2.484375 -4.140625 C 2.367188 -3.992188 2.3125 -3.8125 2.3125 -3.59375 L 1.1875 -3.59375 C 1.1875 -3.78125 1.226562 -3.984375 1.3125 -4.203125 C 1.394531 -4.429688 1.550781 -4.648438 1.78125 -4.859375 C 2.007812 -5.066406 2.34375 -5.238281 2.78125 -5.375 C 3.226562 -5.507812 3.816406 -5.578125 4.546875 -5.578125 Z M 3.671875 -0.875 C 4.828125 -0.875 5.644531 -1.015625 6.125 -1.296875 C 6.613281 -1.585938 6.859375 -1.976562 6.859375 -2.46875 L 6.859375 -2.640625 C 6.554688 -2.585938 6.222656 -2.535156 5.859375 -2.484375 C 5.492188 -2.441406 5.164062 -2.410156 4.875 -2.390625 C 4.6875 -2.390625 4.503906 -2.378906 4.328125 -2.359375 C 4.148438 -2.335938 3.960938 -2.320312 3.765625 -2.3125 C 3.253906 -2.269531 2.882812 -2.210938 2.65625 -2.140625 C 2.425781 -2.066406 2.273438 -1.976562 2.203125 -1.875 C 2.140625 -1.78125 2.109375 -1.671875 2.109375 -1.546875 L 2.109375 -1.5 C 2.109375 -1.375 2.144531 -1.265625 2.21875 -1.171875 C 2.289062 -1.078125 2.4375 -1.003906 2.65625 -0.953125 C 2.875 -0.898438 3.210938 -0.875 3.671875 -0.875 Z M 3.671875 -0.875 "/></g></g><g style="fill:#000000;fill-opacity:1;"><g transform="translate(277.80828, 196.953093)"><path style="stroke:none" d="M 5 -5.609375 C 5.6875 -5.609375 6.296875 -5.503906 6.828125 -5.296875 C 7.359375 -5.097656 7.773438 -4.796875 8.078125 -4.390625 C 8.378906 -3.992188 8.53125 -3.488281 8.53125 -2.875 L 8.53125 -2.5625 C 8.53125 -1.945312 8.375 -1.441406 8.0625 -1.046875 C 7.757812 -0.660156 7.34375 -0.375 6.8125 -0.1875 C 6.289062 0 5.710938 0.09375 5.078125 0.09375 C 4.484375 0.09375 3.941406 0.0195312 3.453125 -0.125 C 2.972656 -0.28125 2.582031 -0.515625 2.28125 -0.828125 L 2.28125 1.765625 L 1.171875 1.765625 L 1.171875 -5.5 L 2.28125 -5.5 L 2.28125 -4.65625 C 2.59375 -4.976562 2.988281 -5.21875 3.46875 -5.375 C 3.945312 -5.53125 4.457031 -5.609375 5 -5.609375 Z M 7.40625 -2.5625 L 7.40625 -2.875 C 7.40625 -3.3125 7.304688 -3.65625 7.109375 -3.90625 C 6.910156 -4.164062 6.628906 -4.347656 6.265625 -4.453125 C 5.898438 -4.566406 5.476562 -4.625 5 -4.625 C 4.695312 -4.625 4.382812 -4.597656 4.0625 -4.546875 C 3.75 -4.503906 3.457031 -4.425781 3.1875 -4.3125 C 2.914062 -4.195312 2.695312 -4.019531 2.53125 -3.78125 C 2.363281 -3.550781 2.28125 -3.25 2.28125 -2.875 L 2.28125 -2.546875 C 2.28125 -2.203125 2.359375 -1.921875 2.515625 -1.703125 C 2.679688 -1.484375 2.898438 -1.3125 3.171875 -1.1875 C 3.453125 -1.070312 3.757812 -0.992188 4.09375 -0.953125 C 4.425781 -0.910156 4.753906 -0.890625 5.078125 -0.890625 C 5.523438 -0.890625 5.925781 -0.9375 6.28125 -1.03125 C 6.632812 -1.132812 6.910156 -1.304688 7.109375 -1.546875 C 7.304688 -1.785156 7.40625 -2.125 7.40625 -2.5625 Z M 7.40625 -2.5625 "/></g></g><g style="fill:#000000;fill-opacity:1;"><g transform="translate(287.107703, 196.953093)"><path style="stroke:none" d="M 4.4375 0.109375 C 3.519531 0.109375 2.789062 -0.0078125 2.25 -0.25 C 1.71875 -0.488281 1.335938 -0.8125 1.109375 -1.21875 C 0.878906 -1.625 0.765625 -2.066406 0.765625 -2.546875 L 0.765625 -2.953125 C 0.765625 -3.316406 0.828125 -3.660156 0.953125 -3.984375 C 1.078125 -4.304688 1.28125 -4.585938 1.5625 -4.828125 C 1.84375 -5.066406 2.226562 -5.253906 2.71875 -5.390625 C 3.21875 -5.523438 3.832031 -5.59375 4.5625 -5.59375 C 5.613281 -5.59375 6.4375 -5.457031 7.03125 -5.1875 C 7.632812 -4.914062 7.9375 -4.503906 7.9375 -3.953125 L 7.9375 -3.8125 C 7.9375 -3.519531 7.851562 -3.273438 7.6875 -3.078125 C 7.53125 -2.878906 7.320312 -2.71875 7.0625 -2.59375 C 6.8125 -2.46875 6.535156 -2.367188 6.234375 -2.296875 C 5.929688 -2.234375 5.628906 -2.1875 5.328125 -2.15625 C 5.035156 -2.132812 4.773438 -2.125 4.546875 -2.125 C 4.347656 -2.125 4.085938 -2.128906 3.765625 -2.140625 C 3.441406 -2.160156 3.113281 -2.1875 2.78125 -2.21875 C 2.445312 -2.257812 2.144531 -2.296875 1.875 -2.328125 C 1.914062 -1.859375 2.144531 -1.492188 2.5625 -1.234375 C 2.988281 -0.972656 3.613281 -0.84375 4.4375 -0.84375 C 5.03125 -0.84375 5.5 -0.890625 5.84375 -0.984375 C 6.1875 -1.078125 6.4375 -1.207031 6.59375 -1.375 C 6.757812 -1.550781 6.863281 -1.75 6.90625 -1.96875 L 8.03125 -1.96875 C 8.019531 -1.582031 7.882812 -1.234375 7.625 -0.921875 C 7.363281 -0.617188 6.972656 -0.367188 6.453125 -0.171875 C 5.929688 0.015625 5.257812 0.109375 4.4375 0.109375 Z M 4.5625 -3.125 C 5.082031 -3.125 5.492188 -3.144531 5.796875 -3.1875 C 6.109375 -3.226562 6.332031 -3.285156 6.46875 -3.359375 C 6.613281 -3.429688 6.707031 -3.515625 6.75 -3.609375 C 6.789062 -3.703125 6.8125 -3.804688 6.8125 -3.921875 C 6.8125 -4.054688 6.753906 -4.175781 6.640625 -4.28125 C 6.535156 -4.382812 6.320312 -4.46875 6 -4.53125 C 5.6875 -4.59375 5.207031 -4.625 4.5625 -4.625 C 3.875 -4.625 3.332031 -4.5625 2.9375 -4.4375 C 2.550781 -4.320312 2.28125 -4.164062 2.125 -3.96875 C 1.96875 -3.769531 1.890625 -3.550781 1.890625 -3.3125 C 2.179688 -3.269531 2.5 -3.234375 2.84375 -3.203125 C 3.1875 -3.179688 3.515625 -3.160156 3.828125 -3.140625 C 4.140625 -3.128906 4.382812 -3.125 4.5625 -3.125 Z M 4.5625 -3.125 "/></g></g><path style="fill:none;stroke-width:2;stroke-linecap:butt;stroke-linejoin:miter;stroke:#000000;stroke-opacity:1;stroke-miterlimit:4;" d="M 1.001076 0.000456784 L 1.001076 7.485402 C 1.001076 8.696746 1.48244 9.860483 2.339374 10.722707 C 3.201597 11.57964 4.365334 12.061004 5.576679 12.061004 L 10.157571 12.061004 " transform="matrix(0.738461,0,0,0.738461,79.944338,167.7731)"/><path style="fill:none;stroke-width:2;stroke-linecap:butt;stroke-linejoin:miter;stroke:#000000;stroke-opacity:1;stroke-miterlimit:4;" d="M 0.00218577 0.999391 L 51.486564 0.999391 " transform="matrix(0.742944,0,0,0.742944,269.553064,175.945008)"/><path style="fill:none;stroke-width:2;stroke-linecap:butt;stroke-linejoin:miter;stroke:#000000;stroke-opacity:1;stroke-miterlimit:4;" d="M -0.00120232 0.999391 L 51.483176 0.999391 " transform="matrix(0.742944,0,0,0.742944,312.868081,175.945008)"/><path style="fill:none;stroke-width:2;stroke-linecap:butt;stroke-linejoin:miter;stroke:#000000;stroke-opacity:1;stroke-miterlimit:4;" d="M 0.000523527 1.002105 L 51.484902 1.002105 " transform="matrix(0,-0.742944,0.742944,0,309.767211,174.344139)"/><g clip-rule="nonzero" clip-path="url(#fabc591190)"><path style=" stroke:none;fill-rule:nonzero;fill:#ffffff;fill-opacity:1;" d="M 306.855469 173.03125 L 314.179688 173.03125 L 314.179688 180.355469 L 306.855469 180.355469 Z M 306.855469 173.03125 "/></g><g clip-rule="nonzero" clip-path="url(#7bdf38bd30)"><path style="fill:none;stroke-width:2;stroke-linecap:butt;stroke-linejoin:miter;stroke:#000000;stroke-opacity:1;stroke-miterlimit:4;" d="M -0.000368533 -0.00248992 L 9.749632 -0.00248992 L 9.749632 9.747511 L -0.000368533 9.747511 Z M -0.000368533 -0.00248992 " transform="matrix(0.75,0,0,0.75,306.855745,173.033117)"/></g><path style="fill:none;stroke-width:2;stroke-linecap:butt;stroke-linejoin:miter;stroke:#000000;stroke-opacity:1;stroke-miterlimit:4;" d="M -0.00107143 1.002105 L 51.483307 1.002105 " transform="matrix(0,-0.742944,0.742944,0,309.767211,217.975766)"/></g></svg>